<?xml version="1.0" standalone="no"?>
<svg xmlns:xlink="http://www.w3.org/1999/xlink" id="wave" style="transform:rotate(0deg); transition: 0.3s" viewBox="0 0 1440 490" version="1.1" xmlns="http://www.w3.org/2000/svg"><defs><linearGradient id="sw-gradient-0" x1="0" x2="0" y1="1" y2="0"><stop stop-color="rgba(80, 0, 202, 1)" offset="0%"/><stop stop-color="rgba(255, 124.836, 0, 1)" offset="100%"/></linearGradient></defs><path style="transform:translate(0, 0px); opacity:1" fill="url(#sw-gradient-0)" d="M0,196L34.3,163.3C68.6,131,137,65,206,32.7C274.3,0,343,0,411,16.3C480,33,549,65,617,130.7C685.7,196,754,294,823,334.8C891.4,376,960,359,1029,318.5C1097.1,278,1166,212,1234,212.3C1302.9,212,1371,278,1440,318.5C1508.6,359,1577,376,1646,343C1714.3,310,1783,229,1851,220.5C1920,212,1989,278,2057,261.3C2125.7,245,2194,147,2263,155.2C2331.4,163,2400,278,2469,277.7C2537.1,278,2606,163,2674,171.5C2742.9,180,2811,310,2880,343C2948.6,376,3017,310,3086,261.3C3154.3,212,3223,180,3291,163.3C3360,147,3429,147,3497,196C3565.7,245,3634,343,3703,359.3C3771.4,376,3840,310,3909,245C3977.1,180,4046,114,4114,114.3C4182.9,114,4251,180,4320,236.8C4388.6,294,4457,343,4526,351.2C4594.3,359,4663,327,4731,277.7C4800,229,4869,163,4903,130.7L4937.1,98L4937.1,490L4902.9,490C4868.6,490,4800,490,4731,490C4662.9,490,4594,490,4526,490C4457.1,490,4389,490,4320,490C4251.4,490,4183,490,4114,490C4045.7,490,3977,490,3909,490C3840,490,3771,490,3703,490C3634.3,490,3566,490,3497,490C3428.6,490,3360,490,3291,490C3222.9,490,3154,490,3086,490C3017.1,490,2949,490,2880,490C2811.4,490,2743,490,2674,490C2605.7,490,2537,490,2469,490C2400,490,2331,490,2263,490C2194.3,490,2126,490,2057,490C1988.6,490,1920,490,1851,490C1782.9,490,1714,490,1646,490C1577.1,490,1509,490,1440,490C1371.4,490,1303,490,1234,490C1165.7,490,1097,490,1029,490C960,490,891,490,823,490C754.3,490,686,490,617,490C548.6,490,480,490,411,490C342.9,490,274,490,206,490C137.1,490,69,490,34,490L0,490Z"/></svg>